{
  "accessors": [
    {
      "bufferView": 3,
      "componentType": 5126,
      "count": 9060,
      "max": [
        1100.0394287109375,
        420.0001220703125,
        1740.00048828125
      ],
      "min": [
        -1100.0391845703125,
        -340,
        -60.000041961669922
      ],
      "type": "VEC3"
    },
    {
      "bufferView": 3,
      "byteOffset": 108720,
      "componentType": 5126,
      "count": 9060,
      "max": [
        1,
        1,
        1
      ],
      "min": [
        -1,
        -1,
        -1
      ],
      "type": "VEC3"
    },
    {
      "bufferView": 2,
      "componentType": 5126,
      "count": 9060,
      "max": [
        0.99494802951812744,
        0.99047094583511353
      ],
      "min": [
        0.0050519141368567944,
        0.0050519141368567944
      ],
      "type": "VEC2"
    },
    {
      "bufferView": 1,
      "componentType": 5125,
      "count": 21702,
      "max": [
        9059
      ],
      "min": [
        0
      ],
      "type": "SCALAR"
    },
    {
      "bufferView": 5,
      "componentType": 5126,
      "count": 4,
      "max": [
        1,
        0,
        0,
        0,
        2.2204464132097826e-18,
        1,
        0.0099999997764825821,
        0,
        0,
        0,
        1,
        0,
        2.5376530058543521e-16,
        3.2000000476837158,
        4.9955865222273133e-08,
        1
      ],
      "min": [
        0.0099999997764825821,
        -7.9301650229093909e-19,
        -2.2204464132097826e-18,
        0,
        0,
        -1.561120815951611e-10,
        0,
        0,
        -7.9301655398972738e-19,
        -0.0099999997764825821,
        -1.561120815951611e-10,
        0,
        0,
        0,
        0,
        1
      ],
      "type": "MAT4"
    },
    {
      "bufferView": 0,
      "componentType": 5123,
      "count": 9060,
      "max": [
        2,
        1,
        1,
        1
      ],
      "min": [
        1,
        1,
        1,
        1
      ],
      "type": "VEC4"
    },
    {
      "bufferView": 4,
      "componentType": 5126,
      "count": 9060,
      "max": [
        1,
        0,
        0,
        0
      ],
      "min": [
        1,
        0,
        0,
        0
      ],
      "type": "VEC4"
    },
    {
      "bufferView": 6,
      "componentType": 5126,
      "count": 50,
      "max": [
        0.81666666269302368
      ],
      "min": [
        0
      ],
      "type": "SCALAR"
    },
    {
      "bufferView": 8,
      "componentType": 5126,
      "count": 50,
      "max": [
        7.8056041630247819e-09,
        0.99948620796203613,
        6.674904184933439e-09,
        1
      ],
      "min": [
        -3.610386212216099e-09,
        -0.85514277219772339,
        -7.8015940374598358e-09,
        -0.46253818273544312
      ],
      "type": "VEC4"
    },
    {
      "bufferView": 6,
      "byteOffset": 200,
      "componentType": 5126,
      "count": 1,
      "max": [
        0
      ],
      "min": [
        0
      ],
      "type": "SCALAR"
    },
    {
      "bufferView": 8,
      "byteOffset": 800,
      "componentType": 5126,
      "count": 1,
      "max": [
        7.8056041630247819e-09,
        1.1102231569740545e-16,
        -3.9650823253390577e-17,
        1
      ],
      "min": [
        7.8056041630247819e-09,
        1.1102231569740545e-16,
        -3.9650823253390577e-17,
        1
      ],
      "type": "VEC4"
    },
    {
      "bufferView": 6,
      "byteOffset": 204,
      "componentType": 5126,
      "count": 50,
      "max": [
        0.81666666269302368
      ],
      "min": [
        0
      ],
      "type": "SCALAR"
    },
    {
      "bufferView": 8,
      "byteOffset": 816,
      "componentType": 5126,
      "count": 50,
      "max": [
        7.8056041630247819e-09,
        0.99948620796203613,
        6.674904184933439e-09,
        1
      ],
      "min": [
        -3.610386212216099e-09,
        -0.85514277219772339,
        -7.8015940374598358e-09,
        -0.46253818273544312
      ],
      "type": "VEC4"
    },
    {
      "bufferView": 6,
      "byteOffset": 404,
      "componentType": 5126,
      "count": 2,
      "max": [
        0.01666666753590107
      ],
      "min": [
        0
      ],
      "type": "SCALAR"
    },
    {
      "bufferView": 7,
      "componentType": 5126,
      "count": 2,
      "max": [
        5.1344182685892901e-23,
        2.8000001907348633,
        3.1086246807086751e-15
      ],
      "min": [
        -4.3235506684675088e-23,
        2.8000001907348633,
        3.1086244689504383e-15
      ],
      "type": "VEC3"
    },
    {
      "bufferView": 6,
      "byteOffset": 412,
      "componentType": 5126,
      "count": 2,
      "max": [
        0.01666666753590107
      ],
      "min": [
        0
      ],
      "type": "SCALAR"
    },
    {
      "bufferView": 8,
      "byteOffset": 1616,
      "componentType": 5126,
      "count": 2,
      "max": [
        7.6616615274360811e-09,
        -0.19115863740444183,
        -1.4921083257846135e-09,
        0.981559157371521
      ],
      "min": [
        7.5503212570993128e-09,
        -0.25365456938743591,
        -1.9799273331955192e-09,
        0.96729487180709839
      ],
      "type": "VEC4"
    },
    {
      "bufferView": 6,
      "byteOffset": 420,
      "componentType": 5126,
      "count": 2,
      "max": [
        0.01666666753590107
      ],
      "min": [
        0
      ],
      "type": "SCALAR"
    },
    {
      "bufferView": 7,
      "byteOffset": 24,
      "componentType": 5126,
      "count": 2,
      "max": [
        -3.6490177965183678e-23,
        -3.2000000476837158,
        1.0587911840678754e-22
      ],
      "min": [
        -4.4714863851123293e-23,
        -3.2000000476837158,
        0
      ],
      "type": "VEC3"
    },
    {
      "bufferView": 6,
      "byteOffset": 428,
      "componentType": 5126,
      "count": 2,
      "max": [
        0.01666666753590107
      ],
      "min": [
        0
      ],
      "type": "SCALAR"
    },
    {
      "bufferView": 8,
      "byteOffset": 1648,
      "componentType": 5126,
      "count": 2,
      "max": [
        -7.8056041630247819e-09,
        -1.1102231569740545e-16,
        3.9650833179557927e-17,
        1
      ],
      "min": [
        -7.8056041630247819e-09,
        -1.942890425442922e-16,
        3.9650816635945676e-17,
        1
      ],
      "type": "VEC4"
    },
    {
      "bufferView": 6,
      "byteOffset": 436,
      "componentType": 5126,
      "count": 2,
      "max": [
        0.01666666753590107
      ],
      "min": [
        0
      ],
      "type": "SCALAR"
    },
    {
      "bufferView": 7,
      "byteOffset": 48,
      "componentType": 5126,
      "count": 2,
      "max": [
        100,
        100,
        100
      ],
      "min": [
        99.999992370605469,
        100,
        99.999992370605469
      ],
      "type": "VEC3"
    },
    {
      "bufferView": 6,
      "byteOffset": 444,
      "componentType": 5126,
      "count": 2,
      "max": [
        0.01666666753590107
      ],
      "min": [
        0
      ],
      "type": "SCALAR"
    },
    {
      "bufferView": 8,
      "byteOffset": 1680,
      "componentType": 5126,
      "count": 2,
      "max": [
        -0.62054461240768433,
        0.33900511264801025,
        -0.27536037564277649,
        0.65128839015960693
      ],
      "min": [
        -0.65128850936889648,
        0.27536040544509888,
        -0.33900505304336548,
        0.62054449319839478
      ],
      "type": "VEC4"
    },
    {
      "bufferView": 6,
      "byteOffset": 452,
      "componentType": 5126,
      "count": 50,
      "max": [
        0.81666666269302368
      ],
      "min": [
        0
      ],
      "type": "SCALAR"
    },
    {
      "bufferView": 7,
      "byteOffset": 72,
      "componentType": 5126,
      "count": 50,
      "max": [
        7.1279641238470514e-23,
        2.8000001907348633,
        3.1086246807086751e-15
      ],
      "min": [
        -8.69598799386465e-23,
        2.8000001907348633,
        3.1086242571922015e-15
      ],
      "type": "VEC3"
    },
    {
      "bufferView": 6,
      "byteOffset": 652,
      "componentType": 5126,
      "count": 50,
      "max": [
        0.81666666269302368
      ],
      "min": [
        0
      ],
      "type": "SCALAR"
    },
    {
      "bufferView": 8,
      "byteOffset": 1712,
      "componentType": 5126,
      "count": 50,
      "max": [
        7.8056041630247819e-09,
        0.99948620796203613,
        6.674904184933439e-09,
        1
      ],
      "min": [
        -3.610386212216099e-09,
        -0.85514277219772339,
        -7.8015940374598358e-09,
        -0.46253818273544312
      ],
      "type": "VEC4"
    },
    {
      "bufferView": 6,
      "byteOffset": 852,
      "componentType": 5126,
      "count": 25,
      "max": [
        0.81666666269302368
      ],
      "min": [
        0
      ],
      "type": "SCALAR"
    },
    {
      "bufferView": 7,
      "byteOffset": 672,
      "componentType": 5126,
      "count": 25,
      "max": [
        6.1164248244777007e-23,
        -3.2000000476837158,
        2.1175823681357508e-22
      ],
      "min": [
        -8.7634027846473893e-23,
        -3.2000000476837158,
        -1.0587911840678754e-22
      ],
      "type": "VEC3"
    },
    {
      "bufferView": 6,
      "byteOffset": 952,
      "componentType": 5126,
      "count": 25,
      "max": [
        0.81666666269302368
      ],
      "min": [
        0
      ],
      "type": "SCALAR"
    },
    {
      "bufferView": 8,
      "byteOffset": 2512,
      "componentType": 5126,
      "count": 25,
      "max": [
        -7.8056041630247819e-09,
        -2.7755582233073814e-17,
        3.9650836488280377e-17,
        1
      ],
      "min": [
        -7.8056041630247819e-09,
        -1.942890425442922e-16,
        3.9650813327223226e-17,
        1
      ],
      "type": "VEC4"
    },
    {
      "bufferView": 6,
      "byteOffset": 1052,
      "componentType": 5126,
      "count": 50,
      "max": [
        0.81666666269302368
      ],
      "min": [
        0
      ],
      "type": "SCALAR"
    },
    {
      "bufferView": 8,
      "byteOffset": 2912,
      "componentType": 5126,
      "count": 50,
      "max": [
        0.47538852691650391,
        0.70674353837966919,
        0.49192190170288086,
        0.70710670948028564
      ],
      "min": [
        -0.7071068286895752,
        -0.49192196130752563,
        -0.70674347877502441,
        -0.47538846731185913
      ],
      "type": "VEC4"
    }
  ],
  "animations": [
    {
      "channels": [
        {
          "sampler": 0,
          "target": {
            "node": 12,
            "path": "rotation"
          }
        }
      ],
      "name": "ArmatureAction.001",
      "samplers": [
        {
          "input": 7,
          "interpolation": "LINEAR",
          "output": 8
        }
      ]
    },
    {
      "channels": [
        {
          "sampler": 0,
          "target": {
            "node": 12,
            "path": "rotation"
          }
        }
      ],
      "name": "Armature|ArmatureAction",
      "samplers": [
        {
          "input": 9,
          "interpolation": "LINEAR",
          "output": 10
        }
      ]
    },
    {
      "channels": [
        {
          "sampler": 0,
          "target": {
            "node": 12,
            "path": "rotation"
          }
        }
      ],
      "name": "Armature|ArmatureAction.001",
      "samplers": [
        {
          "input": 11,
          "interpolation": "LINEAR",
          "output": 12
        }
      ]
    },
    {
      "channels": [
        {
          "sampler": 0,
          "target": {
            "node": 12,
            "path": "translation"
          }
        },
        {
          "sampler": 1,
          "target": {
            "node": 12,
            "path": "rotation"
          }
        },
        {
          "sampler": 2,
          "target": {
            "node": 11,
            "path": "translation"
          }
        },
        {
          "sampler": 3,
          "target": {
            "node": 11,
            "path": "rotation"
          }
        },
        {
          "sampler": 4,
          "target": {
            "node": 6,
            "path": "scale"
          }
        },
        {
          "sampler": 5,
          "target": {
            "node": 6,
            "path": "rotation"
          }
        }
      ],
      "name": "Armature|Cube.000Action",
      "samplers": [
        {
          "input": 13,
          "interpolation": "LINEAR",
          "output": 14
        },
        {
          "input": 15,
          "interpolation": "LINEAR",
          "output": 16
        },
        {
          "input": 17,
          "interpolation": "LINEAR",
          "output": 18
        },
        {
          "input": 19,
          "interpolation": "LINEAR",
          "output": 20
        },
        {
          "input": 21,
          "interpolation": "LINEAR",
          "output": 22
        },
        {
          "input": 23,
          "interpolation": "LINEAR",
          "output": 24
        }
      ]
    },
    {
      "channels": [
        {
          "sampler": 0,
          "target": {
            "node": 12,
            "path": "translation"
          }
        },
        {
          "sampler": 1,
          "target": {
            "node": 12,
            "path": "rotation"
          }
        },
        {
          "sampler": 2,
          "target": {
            "node": 11,
            "path": "translation"
          }
        },
        {
          "sampler": 3,
          "target": {
            "node": 11,
            "path": "rotation"
          }
        },
        {
          "sampler": 4,
          "target": {
            "node": 6,
            "path": "rotation"
          }
        }
      ],
      "name": "Armature|prop spin",
      "samplers": [
        {
          "input": 25,
          "interpolation": "LINEAR",
          "output": 26
        },
        {
          "input": 27,
          "interpolation": "LINEAR",
          "output": 28
        },
        {
          "input": 29,
          "interpolation": "LINEAR",
          "output": 30
        },
        {
          "input": 31,
          "interpolation": "LINEAR",
          "output": 32
        },
        {
          "input": 33,
          "interpolation": "LINEAR",
          "output": 34
        }
      ]
    }
  ],
  "asset": {
    "extras": {
      "author": "n0thaikal (https://sketchfab.com/n0thaikal)",
      "license": "CC-BY-4.0 (http://creativecommons.org/licenses/by/4.0/)",
      "source": "https://sketchfab.com/3d-models/pixel-plane-da5c802719844a86b9464f73c633cdd1",
      "title": "PIXEL PLANE"
    },
    "generator": "Sketchfab-7.44.0",
    "version": "2.0"
  },
  "bufferViews": [
    {
      "buffer": 0,
      "byteLength": 72480,
      "byteOffset": 0,
      "byteStride": 8,
      "name": "shortBufferViews",
      "target": 34962
    },
    {
      "buffer": 0,
      "byteLength": 86808,
      "byteOffset": 72480,
      "name": "floatBufferViews",
      "target": 34963
    },
    {
      "buffer": 0,
      "byteLength": 72480,
      "byteOffset": 159288,
      "byteStride": 8,
      "name": "floatBufferViews",
      "target": 34962
    },
    {
      "buffer": 0,
      "byteLength": 217440,
      "byteOffset": 231768,
      "byteStride": 12,
      "name": "floatBufferViews",
      "target": 34962
    },
    {
      "buffer": 0,
      "byteLength": 144960,
      "byteOffset": 449208,
      "byteStride": 16,
      "name": "floatBufferViews",
      "target": 34962
    },
    {
      "buffer": 0,
      "byteLength": 256,
      "byteOffset": 594168,
      "byteStride": 64,
      "name": "floatBufferViews"
    },
    {
      "buffer": 0,
      "byteLength": 1252,
      "byteOffset": 594424,
      "name": "floatBufferViews"
    },
    {
      "buffer": 0,
      "byteLength": 972,
      "byteOffset": 595676,
      "byteStride": 12,
      "name": "floatBufferViews"
    },
    {
      "buffer": 0,
      "byteLength": 3712,
      "byteOffset": 596648,
      "byteStride": 16,
      "name": "floatBufferViews"
    }
  ],
  "buffers": [
    {
      "byteLength": 600360,
      "uri": "scene.bin"
    }
  ],
  "images": [
    {
      "uri": "textures/Material.026_baseColor.png"
    }
  ],
  "materials": [
    {
      "doubleSided": true,
      "name": "Material.026",
      "pbrMetallicRoughness": {
        "baseColorFactor": [
          1,
          1,
          1,
          1
        ],
        "baseColorTexture": {
          "index": 0,
          "texCoord": 0
        },
        "metallicFactor": 0,
        "roughnessFactor": 0
      },
      "emissiveFactor": [ 0.3, 0.15, 0.0 ]
    }
  ],
  "meshes": [
    {
      "name": "Cube.000_Material.026_0",
      "primitives": [
        {
          "attributes": {
            "JOINTS_0": 5,
            "NORMAL": 1,
            "POSITION": 0,
            "TEXCOORD_0": 2,
            "WEIGHTS_0": 6
          },
          "indices": 3,
          "material": 0,
          "mode": 4
        }
      ]
    }
  ],
  "nodes": [
    {
      "children": [
        1
      ],
      "name": "RootNode (gltf orientation matrix)",
      "rotation": [
        -0.70710678118654746,
        -0,
        -0,
        0.70710678118654757
      ]
    },
    {
      "children": [
        2
      ],
      "name": "RootNode (model correction matrix)"
    },
    {
      "children": [
        3
      ],
      "matrix": [
        1,
        0,
        0,
        0,
        0,
        0,
        1,
        0,
        0,
        -1,
        0,
        0,
        0,
        0,
        0,
        1
      ],
      "name": "851ef2b194494e539ad187404fbe584b.fbx"
    },
    {
      "children": [
        4
      ],
      "name": ""
    },
    {
      "children": [
        5,
        6
      ],
      "name": "RootNode"
    },
    {
      "name": "Cube.000",
      "rotation": [
        -0.7071068286895752,
        0,
        0,
        0.70710670948028564
      ],
      "scale": [
        100,
        100,
        100
      ]
    },
    {
      "children": [
        7
      ],
      "name": "Armature",
      "rotation": [
        -0.7071068286895752,
        0,
        0,
        0.70710670948028564
      ],
      "scale": [
        100,
        100,
        100
      ]
    },
    {
      "children": [
        8,
        10,
        9
      ],
      "name": ""
    },
    {
      "children": [
        11
      ],
      "name": "_rootJoint"
    },
    {
      "matrix": [
        100,
        8.6495329217892709e-22,
        1.0841048184553387e-22,
        0,
        1.0841048184553385e-22,
        6.1232339957367677e-15,
        -100.00000000000003,
        0,
        -8.6495329217892727e-22,
        100.00000000000003,
        6.1232339957367677e-15,
        0,
        -3.7743718826760187e-21,
        -1.9381122141198803e-13,
        -4.7683716388746689e-06,
        1
      ],
      "name": ""
    },
    {
      "mesh": 0,
      "name": "",
      "skin": 0
    },
    {
      "children": [
        12
      ],
      "name": "Bone_00",
      "rotation": [
        -7.8056041630247819e-09,
        -1.1102231569740545e-16,
        3.9650823253390577e-17,
        1
      ],
      "translation": [
        0,
        -3.2000000476837158,
        0
      ]
    },
    {
      "children": [
        13
      ],
      "name": "Bone.001_01",
      "rotation": [
        -3.6103902090189877e-09,
        0.88659936189651489,
        6.9204433295055878e-09,
        -0.46253818273544312
      ],
      "translation": [
        -1.6323322843277586e-23,
        2.8000001907348633,
        3.1086244689504383e-15
      ]
    },
    {
      "name": "Bone.001_end_02",
      "rotation": [
        1.9333000250072695e-39,
        -7.3038009915403013e-17,
        2.6469779601696886e-23,
        1
      ],
      "translation": [
        6.6174449004242214e-24,
        1.3999999761581421,
        -6.6174449004242214e-24
      ]
    }
  ],
  "samplers": [
    {
      "magFilter": 9729,
      "minFilter": 9987,
      "wrapS": 10497,
      "wrapT": 10497
    }
  ],
  "scene": 0,
  "scenes": [
    {
      "name": "OSG_Scene",
      "nodes": [
        0
      ]
    }
  ],
  "skins": [
    {
      "inverseBindMatrices": 4,
      "joints": [
        8,
        11,
        12,
        13
      ],
      "skeleton": 8
    }
  ],
  "textures": [
    {
      "sampler": 0,
      "source": 0
    }
  ]
}

